_________________________  Visit us at _________________________
  
http://p2pdl.com  ____________________________  http://p2pdl.com


Save The Date 2012 BRRip 720p x264 AAC - PRiSTiNE [P2PDL]

Genre: Comedy | Romance
Plot: Sarah begins to confront her shortcomings after 
she rejects her boyfriend's hasty proposal and soon 
finds herself in a rebound romance. Meanwhile, her 
sister Beth is immersed in the details of her wedding.
Director: Michael Mohan
Stars: Geoffrey Arend, Mark Webber, Alison Brie
Rated: Rated R for sexual content, language and brief drug use

Info: 
http://www.imdb.com/title/tt1965065/


General
Complete name                  : Save The Date 2012 BRRip 720p x264 AAC - PRiSTiNE.mp4
Format                         : MPEG-4
Format profile                 : Base Media
File size                      : 602 MiB
Duration                       : 1h 36mn
Overall bit rate mode          : Variable
Overall bit rate               : 870 Kbps

Video
Format                         : AVC
Format/Info                    : Advanced Video Codec
Format profile                 : High 10@L4.1
Bit rate                       : 788 Kbps
Width                          : 1 280 pixels
Height                         : 688 pixels
Display aspect ratio           : 1.85:1
Frame rate mode                : Constant
Frame rate                     : 24.000 fps
Bit depth                      : 10 bits
Stream size                    : 544 MiB (90%)
Writing library                : x264 core 130 r2273 b3065e6

Audio
Format                         : AAC
Format/Info                    : Advanced Audio Codec
Bit rate mode                  : Variable
Bit rate                       : 79.7 Kbps
Channel(s)                     : 2 channels
Channel positions              : Front: L R
Sampling rate                  : 48.0 KHz / 24.0 KHz
Stream size                    : 55.1 MiB (9%)
Language                       : English

Subtitle                       : Yes (English)
Source                         : LIMITED.720p.BluRay.X264-7SinS (Thanks)

Screens:
 
http://www.ultraimg.com/images/T68X7.jpg 
http://www.ultraimg.com/images/5gIBX.jpg 
http://www.ultraimg.com/images/Mz7OD.jpg 
http://www.ultraimg.com/images/4tNsa.jpg 
http://www.ultraimg.com/images/DyxjG.jpg 
http://www.ultraimg.com/images/GD3q.jpg

----------------------------------------------------------------------------------------------------


Encoded using revolutionary 10bit encoding, which enables us to provide you more crispier 
and sharper images at small sizes, just make sure you follow our instructions without a fault.
Recommend to you to use latest version of VLC player. Install K-Lite Codec Pack or shark007 codecs
in case of any kind of problem in playback (For non-VLC Media Player users). Alternatively, install
Core AVC codecs, the fastest decoder that there is coupled with Community Center Codec Pack and play
on Windows Media Player Classic. Check sample to be sure.
Enjoy!

Encoder Notes:Looking For Early Access To Anything You Can Provide DVDScr, R5, DVDR, BluRay, Direct
Audio, Music Releases and Seedboxes. We require dedicated servers, so as to do more 
and fast releases of movies.
If You Got anything to offer please contact us at "prg@hush.com".

Face book Fan Page:   
http://www.fb.me/p2pdl